<svg width="41" height="41" viewBox="0 0 41 41" fill="none" xmlns="http://www.w3.org/2000/svg">
<path d="M22.4004 27.8827L27.4536 22.8357L40.0866 35.4531L35.0334 40.5L22.4004 27.8827Z" fill="#95A5A6"/>
<path d="M22.4004 27.8827L27.4536 22.8357L31.2435 26.6209L26.1903 31.6679L22.4004 27.8827Z" fill="#7F8C8D"/>
<path d="M4.70946 5.18394C-1.56982 11.4292 -1.56982 21.6 4.70946 27.8452C10.9889 34.0905 21.1692 34.0905 27.449 27.8452C33.7289 21.6 33.7289 11.4292 27.449 5.18394C21.1692 -1.06131 10.9887 -1.06131 4.70946 5.18394ZM8.49933 8.93105C12.6856 4.82703 19.472 4.82703 23.6597 8.93105C27.8456 13.2135 27.8456 19.9941 23.6597 24.0981C19.472 28.2021 12.6856 28.2021 8.49933 24.0981C4.3132 19.9941 4.3132 13.2135 8.49933 8.93105Z" fill="#BDC3C7"/>
<path d="M27.575 16.7823C27.575 19.8583 26.3515 22.8084 24.1737 24.9835C21.9959 27.1586 19.0421 28.3806 15.9622 28.3806C12.8823 28.3806 9.9286 27.1586 7.75078 24.9835C5.57297 22.8084 4.34949 19.8583 4.34949 16.7823C4.34949 13.7062 5.57297 10.7561 7.75078 8.581C9.9286 6.40589 12.8823 5.18393 15.9622 5.18393C19.0421 5.18393 21.9959 6.40589 24.1737 8.581C26.3515 10.7561 27.575 13.7062 27.575 16.7823Z" fill="#ECF0F1"/>
</svg>
