<svg width="152" height="151" viewBox="0 0 152 151" fill="none" xmlns="http://www.w3.org/2000/svg">
<path d="M112.594 122.661C113.686 124.209 115.828 124.592 117.328 123.436C127.94 115.256 135.949 104.172 140.339 91.5164C145.104 77.786 145.365 62.9113 141.087 49.0242C136.809 35.1372 128.21 22.9507 116.523 14.2114C104.837 5.47205 90.6622 0.628592 76.0313 0.375158C61.4003 0.121724 47.0641 4.47133 35.0773 12.8006C23.0905 21.1298 14.0685 33.0111 9.30445 46.7415C4.54036 60.472 4.27873 75.3467 8.55706 89.2337C12.5002 102.033 20.1132 113.387 30.4313 121.93C31.8904 123.138 34.0448 122.829 35.1903 121.321C36.3479 119.797 36.0351 117.628 34.5685 116.398C25.4356 108.739 18.6938 98.6173 15.1836 87.2233C11.3331 74.7249 11.5685 61.3377 15.8562 48.9803C20.1439 36.6229 28.2637 25.9297 39.0518 18.4334C49.8399 10.9371 62.7425 7.02245 75.9103 7.25054C89.0782 7.47863 101.835 11.8377 112.353 19.7031C122.871 27.5685 130.61 38.5364 134.46 51.0347C138.311 63.5331 138.075 76.9203 133.788 89.2777C129.879 100.544 122.784 110.427 113.387 117.765C111.879 118.943 111.491 121.098 112.594 122.661Z" fill="#E9EDF0"/>
<path d="M34.0847 125.583C30.5214 129.881 24.0979 130.542 20.2818 126.467C12.5504 118.211 6.75599 108.304 3.37831 97.454C0.0118321 86.6401 -0.840209 75.2553 0.829266 64.1457C1.66421 58.5895 7.38121 55.4903 12.7794 57.0483C18.2091 58.6155 21.2273 64.3083 20.6773 69.9327C19.9711 77.1538 20.7088 84.4769 22.8867 91.4731C25.069 98.4829 28.6317 104.954 33.3327 110.529C36.97 114.843 37.6861 121.24 34.0847 125.583Z" fill="#FBBC05"/>
</svg>
