<svg width="152" height="151" viewBox="0 0 152 151" fill="none" xmlns="http://www.w3.org/2000/svg">
<path d="M107.593 126.661C108.685 128.209 110.827 128.592 112.327 127.436C122.94 119.256 130.948 108.172 135.339 95.5164C140.103 81.786 140.365 66.9113 136.087 53.0242C131.808 39.1372 123.21 26.9507 111.523 18.2114C99.8364 9.47205 85.6619 4.62859 71.0309 4.37516C56.4 4.12172 42.0637 8.47133 30.0769 16.8006C18.0902 25.1298 9.06818 37.0111 4.30409 50.7415C-0.460004 64.472 -0.721634 79.3467 3.5567 93.2337C7.49984 106.033 15.1129 117.387 25.4309 125.93C26.89 127.138 29.0444 126.829 30.19 125.321C31.3475 123.797 31.0347 121.628 29.5682 120.398C20.4352 112.739 13.6935 102.617 10.1832 91.2233C6.33269 78.7249 6.56816 65.3377 10.8558 52.9803C15.1435 40.6229 23.2633 29.9297 34.0514 22.4334C44.8395 14.9371 57.7421 11.0225 70.91 11.2505C84.0778 11.4786 96.8349 15.8377 107.353 23.7031C117.871 31.5685 125.61 42.5364 129.46 55.0347C133.311 67.5331 133.075 80.9203 128.787 93.2777C124.878 104.544 117.784 114.427 108.386 121.765C106.878 122.943 106.49 125.098 107.593 126.661Z" fill="#E9EDF0"/>
<path d="M34.0843 125.583C30.521 129.881 24.0976 130.542 20.2815 126.467C12.1318 117.765 6.14017 107.233 2.85805 95.7095C-1.34585 80.9493 -0.903767 65.2666 4.12508 50.7627C9.15392 36.2589 18.5293 23.6266 30.9951 14.5583C40.7261 7.47958 51.9773 2.83656 63.7954 0.952478C69.3194 0.0718136 73.9903 4.55685 74.1352 10.1488C74.2801 15.7438 69.8218 20.3041 64.3445 21.4551C56.6944 23.0627 49.4349 26.2677 43.0665 30.9004C33.9576 37.5266 27.1069 46.7572 23.4323 57.3553C19.7577 67.9535 19.4346 79.4129 22.5065 90.1983C24.6412 97.6935 28.3445 104.614 33.3323 110.529C36.9696 114.843 37.6857 121.24 34.0843 125.583Z" fill="#3A5AFE"/>
</svg>
