<svg width="152" height="151" viewBox="0 0 152 151" fill="none" xmlns="http://www.w3.org/2000/svg">
<path d="M112.594 122.661C113.686 124.209 115.828 124.592 117.328 123.436C127.94 115.256 135.949 104.172 140.339 91.5164C145.104 77.786 145.365 62.9113 141.087 49.0242C136.809 35.1372 128.21 22.9507 116.523 14.2114C104.837 5.47205 90.6622 0.628592 76.0313 0.375158C61.4003 0.121724 47.0641 4.47133 35.0773 12.8006C23.0905 21.1298 14.0685 33.0111 9.30445 46.7415C4.54036 60.472 4.27873 75.3467 8.55706 89.2337C12.5002 102.033 20.1132 113.387 30.4313 121.93C31.8904 123.138 34.0448 122.829 35.1903 121.321C36.3479 119.797 36.0351 117.628 34.5685 116.398C25.4356 108.739 18.6938 98.6173 15.1836 87.2233C11.3331 74.7249 11.5685 61.3377 15.8562 48.9803C20.1439 36.6229 28.2637 25.9297 39.0518 18.4334C49.8399 10.9371 62.7425 7.02245 75.9103 7.25054C89.0782 7.47863 101.835 11.8377 112.353 19.7031C122.871 27.5685 130.61 38.5364 134.46 51.0347C138.311 63.5331 138.075 76.9203 133.788 89.2777C129.879 100.544 122.784 110.427 113.387 117.765C111.879 118.943 111.491 121.098 112.594 122.661Z" fill="#E9EDF0"/>
<path d="M34.0847 125.583C30.5214 129.881 24.0981 130.542 20.282 126.467C15.8258 121.709 11.9995 116.387 8.90773 110.63C4.22512 101.909 1.31915 92.3592 0.355743 82.5243C-0.607661 72.6895 0.390368 62.7627 3.29285 53.3106C6.19532 43.8585 10.9454 35.0663 17.2719 27.436C23.5984 19.8057 31.3774 13.4867 40.1647 8.83981C48.9521 4.1929 58.5757 1.30909 68.4861 0.35303C78.3965 -0.603028 88.3996 0.387391 97.9243 3.26774C104.167 5.15568 110.125 7.83134 115.654 11.2189C120.465 14.1666 121.064 20.6788 117.462 25.0224C113.899 29.32 107.568 29.8422 102.676 27.1522C99.2849 25.2877 95.6983 23.777 91.9724 22.6502C85.0126 20.5455 77.7033 19.8218 70.4616 20.5204C63.22 21.219 56.1879 23.3263 49.7669 26.7218C43.3459 30.1174 37.6617 34.7347 33.0389 40.3103C28.4161 45.8858 24.9452 52.3103 22.8243 59.2171C20.7034 66.1238 19.9741 73.3774 20.6781 80.5639C21.3821 87.7503 23.5055 94.7287 26.9271 101.101C28.7326 104.463 30.8808 107.622 33.3328 110.529C36.9701 114.843 37.6861 121.24 34.0847 125.583Z" fill="#4B5AE0"/>
</svg>
